<svg xmlns="http://www.w3.org/2000/svg" xmlns:xlink="http://www.w3.org/1999/xlink" width="1067" height="234" viewBox="0 0 1067 234">
  <defs>
    <clipPath id="clip-black_no_bg">
      <rect width="1067" height="234"/>
    </clipPath>
  </defs>
  <g id="black_no_bg" clip-path="url(#clip-black_no_bg)">
    <text id="LangSync" transform="translate(323 171.884)" font-size="178" font-family="DHanna-Medium, D Hanna" font-weight="500"><tspan x="0" y="0">LangSync</tspan></text>
    <path id="Tracé_1" data-name="Tracé 1" d="M122.28,99.315A18.712,18.712,0,0,0,141,80.609a18.445,18.445,0,0,0-5.478-13.094,116.2,116.2,0,0,0-31.243,17.691A18.572,18.572,0,0,0,122.28,99.315Zm-43,13.073a115.719,115.719,0,0,0-15.266,33.782,17.967,17.967,0,0,0,6,1.065,18.636,18.636,0,0,0,9.268-34.847Zm43-2.574a18.711,18.711,0,1,0,13.231,5.48A18.71,18.71,0,0,0,122.28,109.813Zm51.875-47.921a18.71,18.71,0,1,0,13.231,5.48A18.713,18.713,0,0,0,174.155,61.893Zm52.271,37.422a18.646,18.646,0,0,0,18.5-16.672,116.205,116.205,0,0,0-30.666-16.111,18.49,18.49,0,0,0-6.544,14.077,18.7,18.7,0,0,0,18.706,18.706Zm-52.271,10.5a18.71,18.71,0,1,0,13.231,5.48A18.713,18.713,0,0,0,174.155,109.813Zm52.271,0a18.711,18.711,0,1,0,13.23,5.48A18.711,18.711,0,0,0,226.427,109.813ZM70.009,157.682a18.615,18.615,0,0,0-8.83,2.3,114.776,114.776,0,0,0,0,32.819,18.674,18.674,0,1,0,8.83-35.121Zm52.271,0a18.712,18.712,0,1,0,13.231,5.481A18.711,18.711,0,0,0,122.28,157.682ZM70.009,205.6a18.13,18.13,0,0,0-5.988,1.056,115.632,115.632,0,0,0,15.313,33.827A18.685,18.685,0,0,0,70.009,205.6Zm52.271,0a18.711,18.711,0,1,0,13.231,5.48A18.71,18.71,0,0,0,122.28,205.6Zm51.875-47.916a18.711,18.711,0,1,0,13.231,5.481A18.713,18.713,0,0,0,174.155,157.682Zm52.271,0a18.712,18.712,0,1,0,13.23,5.481A18.711,18.711,0,0,0,226.427,157.682ZM174.155,205.6a18.71,18.71,0,1,0,13.231,5.48A18.713,18.713,0,0,0,174.155,205.6Zm52.271,0a18.711,18.711,0,1,0,13.23,5.48A18.711,18.711,0,0,0,226.427,205.6Zm50.2-58.368a18.307,18.307,0,0,0,11.122-3.8,115.989,115.989,0,0,0-15.771-32.953,18.668,18.668,0,0,0,4.649,36.753Zm15.406,18.577a18.711,18.711,0,1,0,0,21.172c.319-3.5.51-7,.51-10.586C292.538,172.825,292.352,169.293,292.028,165.807Zm-34.116,58.5a18.661,18.661,0,0,0,14.036,18.052,115.655,115.655,0,0,0,15.8-32.989,18.452,18.452,0,0,0-11.121-3.759,18.691,18.691,0,0,0-18.716,18.7ZM123.12,254.692a18.608,18.608,0,0,0-17.9,13.634A116.266,116.266,0,0,0,137,285.811a18.447,18.447,0,0,0,4.835-12.409,18.705,18.705,0,0,0-18.711-18.711Zm51.875,0a18.716,18.716,0,1,0,13.234,5.482A18.716,18.716,0,0,0,174.995,254.692Zm52.271,0a18.683,18.683,0,0,0-13.433,31.7,115.862,115.862,0,0,0,31.661-16.652A18.607,18.607,0,0,0,227.266,254.692Z" transform="translate(-1 -59.893)" stroke="#fff" stroke-width="0"/>
  </g>
</svg>
